<svg width="71" height="359" viewBox="0 0 71 359" fill="none" xmlns="http://www.w3.org/2000/svg">
<path d="M68.9757 182.289L66.9759 182.263L68.9757 182.289ZM1.88181 2.00351C0.779169 2.06876 -0.06178 3.01556 0.00349534 4.11819L1.06722 22.0867C1.1325 23.1894 2.07928 24.0303 3.18192 23.9651C4.28455 23.8998 5.1255 22.953 5.06023 21.8503L4.1147 5.87833L20.0867 4.93277C21.1894 4.86749 22.0303 3.92072 21.965 2.81808C21.8998 1.71545 20.953 0.874481 19.8503 0.939758L1.88181 2.00351ZM2 357C3.31638 358.506 3.31737 358.505 3.31861 358.504C3.31935 358.503 3.32084 358.502 3.32233 358.5C3.32531 358.498 3.32928 358.494 3.33423 358.49C3.34415 358.481 3.358 358.469 3.37573 358.453C3.41119 358.422 3.46216 358.376 3.52815 358.317C3.66013 358.198 3.85218 358.022 4.10034 357.791C4.59667 357.327 5.31749 356.639 6.23112 355.725C8.05831 353.896 10.6571 351.163 13.7738 347.521C20.0067 340.235 28.3139 329.307 36.6624 314.687C53.3637 285.439 70.2209 241.432 70.9756 182.314L68.9757 182.289L66.9759 182.263C66.2311 240.614 49.6004 283.963 33.1888 312.703C24.9807 327.077 16.8251 337.801 10.7344 344.92C7.68924 348.479 5.16101 351.136 3.40161 352.897C2.52194 353.778 1.83458 354.434 1.37105 354.866C1.13928 355.083 0.963488 355.243 0.847599 355.348C0.789656 355.4 0.74669 355.438 0.719196 355.463C0.705449 355.475 0.69557 355.484 0.689621 355.489C0.686646 355.492 0.684654 355.493 0.683651 355.494C0.68315 355.495 0.683143 355.495 0.682891 355.495C0.683132 355.495 0.683622 355.494 2 357ZM68.9757 182.289L70.9756 182.314C71.7305 123.17 54.8664 78.2523 37.7903 48.1082C29.2543 33.0396 20.6663 21.6638 14.2008 14.0447C10.9677 10.2348 8.26443 7.36298 6.36222 5.43732C5.41108 4.47443 4.66009 3.74796 4.14315 3.25888C3.88468 3.01434 3.68471 2.82916 3.54747 2.70343C3.47885 2.64053 3.42591 2.59253 3.38919 2.55942C3.37082 2.54285 3.35651 2.53 3.34632 2.52087C3.34123 2.51633 3.33716 2.5127 3.33413 2.50998C3.33262 2.50864 3.33113 2.50732 3.33037 2.50665C3.32914 2.50555 3.32817 2.50467 2 4C0.671832 5.49533 0.671385 5.4949 0.671198 5.49475C0.671482 5.495 0.671554 5.49506 0.672122 5.49557C0.673257 5.49658 0.675426 5.49854 0.678623 5.50137C0.685017 5.50711 0.695519 5.51654 0.710063 5.52966C0.73915 5.55588 0.784406 5.59689 0.845301 5.65271C0.967094 5.76428 1.15144 5.93494 1.39413 6.16455C1.87952 6.62378 2.59821 7.31873 3.51651 8.24835C5.35318 10.1077 7.98779 12.9053 11.1509 16.6328C17.4776 24.0884 25.9147 35.2596 34.31 50.0797C51.0967 79.7131 67.7204 123.94 66.9759 182.263L68.9757 182.289Z" fill="#FEBD6D"/>
</svg>
