<svg width="60" height="60" viewBox="0 0 60 60" fill="none" xmlns="http://www.w3.org/2000/svg">
<circle cx="30" cy="30" r="30" fill="#229ED9"/>
<path d="M10.6535 27.9054L19.1791 30.7699L22.479 40.3233C22.6901 40.9352 23.5213 41.1613 24.073 40.7553L28.8252 37.2678C29.3234 36.9024 30.0329 36.8842 30.5535 37.2244L39.1249 42.8264C39.7151 43.2126 40.5512 42.9214 40.6992 42.2795L46.9782 15.0902C47.1398 14.389 46.3744 13.804 45.6326 14.0622L10.6435 26.213C9.78008 26.5128 9.78761 27.6133 10.6535 27.9054ZM21.9472 29.245L38.6093 20.0069C38.9087 19.8414 39.2168 20.2059 38.9597 20.4206L25.2086 31.9273C24.7253 32.3323 24.4135 32.8744 24.3252 33.4627L23.8568 36.5876C23.7947 37.0049 23.1436 37.0463 23.0157 36.6425L21.2142 30.9441C21.0079 30.2941 21.3086 29.5999 21.9472 29.245Z" fill="white"/>
</svg>
