<svg width="60" height="60" viewBox="0 0 60 60" fill="none" xmlns="http://www.w3.org/2000/svg">
<path d="M49.174 29.9989C49.174 40.5866 40.5905 49.1696 30.0021 49.1696C19.4137 49.1696 10.8301 40.5866 10.8301 29.9989C10.8301 19.4112 19.4137 10.8281 30.0021 10.8281C40.5905 10.8281 49.174 19.4112 49.174 29.9989Z" fill="white"/>
<path fill-rule="evenodd" clip-rule="evenodd" d="M60.0039 30C60.0039 46.5685 46.5716 60 30.002 60C13.4323 60 0 46.5685 0 30C0 13.4315 13.4323 0 30.002 0C46.5716 0 60.0039 13.4315 60.0039 30ZM30.002 49.1707C40.5903 49.1707 49.1739 40.5877 49.1739 30C49.1739 19.4123 40.5903 10.8293 30.002 10.8293C19.4136 10.8293 10.83 19.4123 10.83 30C10.83 40.5877 19.4136 49.1707 30.002 49.1707Z" fill="#B34A46"/>
<path d="M39.0772 29.8544C39.0772 34.8654 35.0147 38.9276 30.0034 38.9276C24.9921 38.9276 20.9297 34.8654 20.9297 29.8544C20.9297 24.8434 24.9921 20.7812 30.0034 20.7812C35.0147 20.7812 39.0772 24.8434 39.0772 29.8544Z" fill="#B34A46"/>
<path d="M34.3904 5.56212C34.3904 7.98678 32.4247 9.95236 29.9999 9.95236C27.5751 9.95236 25.6094 7.98678 25.6094 5.56212C25.6094 3.13745 27.5751 1.17188 29.9999 1.17188C32.4247 1.17188 34.3904 3.13745 34.3904 5.56212Z" fill="white"/>
<path d="M29.123 10.8281H30.8793V22.2428H29.123V10.8281Z" fill="#B34A46"/>
</svg>
