<svg width="596" height="129" viewBox="0 0 596 129" fill="none" xmlns="http://www.w3.org/2000/svg">
<mask id="path-1-inside-1_1_15" fill="white">
<path d="M0 10C0 4.47715 4.47715 0 10 0H586C591.523 0 596 4.47715 596 10V119C596 124.523 591.523 129 586 129H10C4.47716 129 0 124.523 0 119V10Z"/>
</mask>
<path d="M0 10C0 4.47715 4.47715 0 10 0H586C591.523 0 596 4.47715 596 10V119C596 124.523 591.523 129 586 129H10C4.47716 129 0 124.523 0 119V10Z" fill="#FEBD6D"/>
<path d="M0 0H596H0ZM596 119C596 125.627 590.627 131 584 131H12C5.37258 131 0 125.627 0 119C0 123.418 4.47715 127 10 127H586C591.523 127 596 123.418 596 119ZM0 129V0V129ZM596 0V129V0Z" fill="#D5974B" mask="url(#path-1-inside-1_1_15)"/>
</svg>
