<svg width="89" height="79" viewBox="0 0 89 79" fill="none" xmlns="http://www.w3.org/2000/svg">
<path fill-rule="evenodd" clip-rule="evenodd" d="M68.4351 45.6592C68.4351 45.6592 10.3037 43.3287 11.6166 27.2214C12.9163 11.2754 63.9103 22.8331 63.9103 22.8331C63.9103 22.8331 19.9565 16.5163 18.9209 28.132C18.0271 38.1568 68.4351 45.6592 68.4351 45.6592ZM20.7506 30.3676C20.7506 30.3676 82.0239 24.2605 82.8942 43.8081C83.77 63.477 10.6005 54.3936 10.6005 54.3936C10.6005 54.3936 71.5412 55.5534 71.0002 43.0631C70.4593 30.5728 20.7506 30.3676 20.7506 30.3676ZM69.8252 24.191C67.5009 17.5154 33.6077 14.4952 33.6077 14.4952C33.6077 14.4952 71.3302 12.9595 80.168 26.3679C82.0899 29.2837 57.9074 26.0794 57.9074 26.0794C57.9074 26.0794 70.4005 25.8434 69.8252 24.191Z" fill="#FEBD6D"/>
<path d="M88.1298 77.9907H85.9075L85.5271 75.4481H82.8243L82.444 77.9907H80.4219L82.6642 63.9763H85.8875L88.1298 77.9907ZM83.1046 73.5461H85.2268L84.1657 66.4588L83.1046 73.5461Z" fill="#FEBD6D"/>
<path d="M74.4195 67.8403V77.9907H72.4375V63.9763H75.2003L77.4627 72.3649V63.9763H79.4247V77.9907H77.1624L74.4195 67.8403Z" fill="#FEBD6D"/>
<path d="M68.6445 63.9763H70.8468V77.9907H68.6445V63.9763Z" fill="#FEBD6D"/>
<path d="M62.2999 77.9907H60.0977V63.9763H62.2999V69.9825H64.8025V63.9763H67.0448V77.9907H64.8025V71.9845H62.2999V77.9907Z" fill="#FEBD6D"/>
<path d="M58.766 72.7653V74.6272C58.766 75.7617 58.4857 76.636 57.9251 77.2499C57.3779 77.8505 56.5637 78.1509 55.4826 78.1509C54.4015 78.1509 53.5806 77.8505 53.0201 77.2499C52.4728 76.636 52.1992 75.7617 52.1992 74.6272V67.3397C52.1992 66.2052 52.4728 65.3377 53.0201 64.7371C53.5806 64.1231 54.4015 63.8161 55.4826 63.8161C56.5637 63.8161 57.3779 64.1231 57.9251 64.7371C58.4857 65.3377 58.766 66.2052 58.766 67.3397V68.7011H56.6838V67.1996C56.6838 66.6924 56.577 66.3387 56.3635 66.1385C56.1633 65.925 55.8897 65.8182 55.5427 65.8182C55.1956 65.8182 54.9153 65.925 54.7018 66.1385C54.5016 66.3387 54.4015 66.6924 54.4015 67.1996V74.7674C54.4015 75.2746 54.5016 75.6283 54.7018 75.8285C54.9153 76.0287 55.1956 76.1288 55.5427 76.1288C55.8897 76.1288 56.1633 76.0287 56.3635 75.8285C56.577 75.6283 56.6838 75.2746 56.6838 74.7674V72.7653H58.766Z" fill="#FEBD6D"/>
<path d="M48.9289 77.9907C48.9023 77.8973 48.8756 77.8105 48.8489 77.7304C48.8222 77.6503 48.7955 77.5502 48.7688 77.4301C48.7554 77.31 48.7421 77.1565 48.7287 76.9696C48.7287 76.7828 48.7287 76.5492 48.7287 76.2689V74.0666C48.7287 73.4126 48.6153 72.9522 48.3884 72.6852C48.1615 72.4183 47.7944 72.2848 47.2873 72.2848H46.5265V77.9907H44.3242V63.9763H47.6476C48.7955 63.9763 49.623 64.2432 50.1302 64.7771C50.6507 65.311 50.911 66.1185 50.911 67.1996V68.3007C50.911 69.7422 50.4305 70.6898 49.4695 71.1436C50.0301 71.3705 50.4105 71.7443 50.6107 72.2648C50.8242 72.772 50.931 73.3926 50.931 74.1267V76.2889C50.931 76.636 50.9444 76.9429 50.971 77.2099C50.9977 77.4635 51.0645 77.7237 51.1713 77.9907H48.9289ZM46.5265 65.9783V70.2828H47.3874C47.8011 70.2828 48.1215 70.176 48.3484 69.9624C48.5886 69.7489 48.7087 69.3618 48.7087 68.8012V67.4198C48.7087 66.9126 48.6153 66.5456 48.4284 66.3187C48.2549 66.0918 47.9746 65.9783 47.5876 65.9783H46.5265Z" fill="#FEBD6D"/>
<path d="M39.1515 69.8823H42.1746V71.8844H39.1515V75.9886H42.9554V77.9907H36.9492V63.9763H42.9554V65.9783H39.1515V69.8823Z" fill="#FEBD6D"/>
<path d="M30.1289 63.9763H32.3312V75.9886H35.9549V77.9907H30.1289V63.9763Z" fill="#FEBD6D"/>
<path d="M23.3047 63.9763H25.5069V75.9886H29.1307V77.9907H23.3047V63.9763Z" fill="#FEBD6D"/>
<path d="M18.1359 69.8823H21.159V71.8844H18.1359V75.9886H21.9398V77.9907H15.9336V63.9763H21.9398V65.9783H18.1359V69.8823Z" fill="#FEBD6D"/>
<path d="M8.16553 67.3397C8.16553 66.2052 8.43247 65.3377 8.96635 64.7371C9.51358 64.1231 10.3278 63.8161 11.4089 63.8161C12.49 63.8161 13.2975 64.1231 13.8314 64.7371C14.3786 65.3377 14.6522 66.2052 14.6522 67.3397V67.8803H12.5701V67.1996C12.5701 66.6924 12.47 66.3387 12.2697 66.1385C12.0829 65.925 11.8159 65.8182 11.4689 65.8182C11.1219 65.8182 10.8483 65.925 10.6481 66.1385C10.4612 66.3387 10.3678 66.6924 10.3678 67.1996C10.3678 67.6801 10.4746 68.1072 10.6881 68.4809C10.9017 68.8413 11.1686 69.1883 11.4889 69.522C11.8093 69.8423 12.1496 70.1693 12.51 70.503C12.8837 70.8233 13.2307 71.177 13.5511 71.5641C13.8714 71.9512 14.1383 72.3916 14.3519 72.8854C14.5654 73.3793 14.6722 73.9599 14.6722 74.6272C14.6722 75.7617 14.3919 76.636 13.8314 77.2499C13.2841 77.8505 12.47 78.1509 11.3888 78.1509C10.3077 78.1509 9.48689 77.8505 8.92631 77.2499C8.37908 76.636 8.10547 75.7617 8.10547 74.6272V73.6662H10.1876V74.7674C10.1876 75.2746 10.2877 75.6283 10.4879 75.8285C10.7015 76.0287 10.9818 76.1288 11.3288 76.1288C11.6758 76.1288 11.9494 76.0287 12.1496 75.8285C12.3632 75.6283 12.47 75.2746 12.47 74.7674C12.47 74.2869 12.3632 73.8665 12.1496 73.5061C11.9361 73.1324 11.6691 72.7853 11.3488 72.465C11.0285 72.1313 10.6814 71.8043 10.3077 71.484C9.94736 71.1503 9.60701 70.79 9.28668 70.4029C8.96635 70.0158 8.69941 69.5754 8.48586 69.0815C8.27231 68.5877 8.16553 68.0071 8.16553 67.3397Z" fill="#FEBD6D"/>
</svg>
