<svg width="165" height="37" viewBox="0 0 165 37" fill="none" xmlns="http://www.w3.org/2000/svg">
<path d="M17.5489 2.92705C17.8483 2.00574 19.1517 2.00574 19.4511 2.92705L22.429 12.0922C22.5629 12.5042 22.9468 12.7832 23.3801 12.7832H33.0169C33.9856 12.7832 34.3884 14.0228 33.6046 14.5922L25.8083 20.2566C25.4578 20.5112 25.3112 20.9626 25.445 21.3746L28.423 30.5398C28.7223 31.4611 27.6678 32.2272 26.8841 31.6578L19.0878 25.9934C18.7373 25.7388 18.2627 25.7388 17.9122 25.9934L10.1159 31.6578C9.33216 32.2272 8.27768 31.4611 8.57703 30.5398L11.555 21.3746C11.6888 20.9626 11.5422 20.5112 11.1917 20.2566L3.39535 14.5922C2.61164 14.0228 3.01442 12.7832 3.98314 12.7832H13.6199C14.0532 12.7832 14.4371 12.5042 14.571 12.0922L17.5489 2.92705Z" fill="#FF9545"/>
<path d="M49.5489 2.92705C49.8483 2.00574 51.1517 2.00574 51.4511 2.92705L54.429 12.0922C54.5629 12.5042 54.9468 12.7832 55.3801 12.7832H65.0169C65.9856 12.7832 66.3884 14.0228 65.6046 14.5922L57.8083 20.2566C57.4578 20.5112 57.3112 20.9626 57.445 21.3746L60.423 30.5398C60.7223 31.4611 59.6678 32.2272 58.8841 31.6578L51.0878 25.9934C50.7373 25.7388 50.2627 25.7388 49.9122 25.9934L42.1159 31.6578C41.3322 32.2272 40.2777 31.4611 40.577 30.5398L43.555 21.3746C43.6888 20.9626 43.5422 20.5112 43.1917 20.2566L35.3954 14.5922C34.6116 14.0228 35.0144 12.7832 35.9831 12.7832H45.6199C46.0532 12.7832 46.4371 12.5042 46.571 12.0922L49.5489 2.92705Z" fill="#FF9545"/>
<path d="M81.5489 2.92705C81.8483 2.00574 83.1517 2.00574 83.4511 2.92705L86.429 12.0922C86.5629 12.5042 86.9468 12.7832 87.3801 12.7832H97.0169C97.9856 12.7832 98.3884 14.0228 97.6046 14.5922L89.8083 20.2566C89.4578 20.5112 89.3112 20.9626 89.445 21.3746L92.423 30.5398C92.7223 31.4611 91.6678 32.2272 90.8841 31.6578L83.0878 25.9934C82.7373 25.7388 82.2627 25.7388 81.9122 25.9934L74.1159 31.6578C73.3322 32.2272 72.2777 31.4611 72.577 30.5398L75.555 21.3746C75.6888 20.9626 75.5422 20.5112 75.1917 20.2566L67.3954 14.5922C66.6116 14.0228 67.0144 12.7832 67.9831 12.7832H77.6199C78.0532 12.7832 78.4371 12.5042 78.571 12.0922L81.5489 2.92705Z" fill="#FF9545"/>
<path d="M113.549 2.92705C113.848 2.00574 115.152 2.00574 115.451 2.92705L118.429 12.0922C118.563 12.5042 118.947 12.7832 119.38 12.7832H129.017C129.986 12.7832 130.388 14.0228 129.605 14.5922L121.808 20.2566C121.458 20.5112 121.311 20.9626 121.445 21.3746L124.423 30.5398C124.722 31.4611 123.668 32.2272 122.884 31.6578L115.088 25.9934C114.737 25.7388 114.263 25.7388 113.912 25.9934L106.116 31.6578C105.332 32.2272 104.278 31.4611 104.577 30.5398L107.555 21.3746C107.689 20.9626 107.542 20.5112 107.192 20.2566L99.3954 14.5922C98.6116 14.0228 99.0144 12.7832 99.9831 12.7832H109.62C110.053 12.7832 110.437 12.5042 110.571 12.0922L113.549 2.92705Z" fill="#FF9545"/>
<path d="M145.549 2.92705C145.848 2.00574 147.152 2.00574 147.451 2.92705L150.429 12.0922C150.563 12.5042 150.947 12.7832 151.38 12.7832H161.017C161.986 12.7832 162.388 14.0228 161.605 14.5922L153.808 20.2566C153.458 20.5112 153.311 20.9626 153.445 21.3746L156.423 30.5398C156.722 31.4611 155.668 32.2272 154.884 31.6578L147.088 25.9934C146.737 25.7388 146.263 25.7388 145.912 25.9934L138.116 31.6578C137.332 32.2272 136.278 31.4611 136.577 30.5398L139.555 21.3746C139.689 20.9626 139.542 20.5112 139.192 20.2566L131.395 14.5922C130.612 14.0228 131.014 12.7832 131.983 12.7832H141.62C142.053 12.7832 142.437 12.5042 142.571 12.0922L145.549 2.92705Z" fill="#FF9545"/>
</svg>
