<svg width="48" height="48" viewBox="0 0 48 48" fill="none" xmlns="http://www.w3.org/2000/svg">
<path d="M39.3376 24.0011C39.3376 32.4713 32.4712 39.3377 24.001 39.3377C15.5309 39.3377 8.66443 32.4713 8.66443 24.0011C8.66443 15.531 15.5309 8.66455 24.001 8.66455C32.4712 8.66455 39.3376 15.531 39.3376 24.0011Z" fill="white"/>
<path fill-rule="evenodd" clip-rule="evenodd" d="M48 24C48 37.2548 37.2548 48 24 48C10.7452 48 0 37.2548 0 24C0 10.7452 10.7452 0 24 0C37.2548 0 48 10.7452 48 24ZM24 39.3366C32.4702 39.3366 39.3366 32.4702 39.3366 24C39.3366 15.5298 32.4702 8.66341 24 8.66341C15.5298 8.66341 8.66341 15.5298 8.66341 24C8.66341 32.4702 15.5298 39.3366 24 39.3366Z" fill="#B34A46"/>
<path d="M31.2589 23.8821C31.2589 27.8909 28.0091 31.1406 24.0004 31.1406C19.9916 31.1406 16.7418 27.8909 16.7418 23.8821C16.7418 19.8733 19.9916 16.6235 24.0004 16.6235C28.0091 16.6235 31.2589 19.8733 31.2589 23.8821Z" fill="#B34A46"/>
<path d="M27.5112 4.4497C27.5112 6.38943 25.9387 7.96189 23.999 7.96189C22.0593 7.96189 20.4868 6.38943 20.4868 4.4497C20.4868 2.50996 22.0593 0.9375 23.999 0.9375C25.9387 0.9375 27.5112 2.50996 27.5112 4.4497Z" fill="white"/>
<path d="M23.2969 8.66455H24.7018V17.7963H23.2969V8.66455Z" fill="#B34A46"/>
</svg>
