<svg width="66" height="66" viewBox="0 0 66 66" fill="none" xmlns="http://www.w3.org/2000/svg">
<rect width="66" height="66" rx="5" fill="#FEBD6D"/>
<path fill-rule="evenodd" clip-rule="evenodd" d="M50.0042 40.5383C50.0042 40.5383 7.52873 38.8355 8.48799 27.0662C9.43765 15.4149 46.6979 23.8598 46.6979 23.8598C46.6979 23.8598 14.5818 19.2443 13.8251 27.7316C13.172 35.0566 50.0042 40.5383 50.0042 40.5383ZM15.162 29.3651C15.162 29.3651 59.9332 24.9028 60.5691 39.1858C61.209 53.5575 7.74557 46.9204 7.74557 46.9204C7.74557 46.9204 52.2737 47.7679 51.8784 38.6415C51.4832 29.515 15.162 29.3651 15.162 29.3651ZM51.0198 24.852C49.3215 19.9743 24.5565 17.7674 24.5565 17.7674C24.5565 17.7674 52.1195 16.6453 58.5771 26.4426C59.9814 28.5732 42.3117 26.2318 42.3117 26.2318C42.3117 26.2318 51.4402 26.0593 51.0198 24.852Z" fill="white"/>
</svg>
