<svg width="25" height="24" viewBox="0 0 25 24" fill="none" xmlns="http://www.w3.org/2000/svg">
<path fill-rule="evenodd" clip-rule="evenodd" d="M1.41406 1.71729e-06L23.4152 0.000975857C23.9675 0.000977206 24.4152 0.448691 24.4152 1.00097L24.4152 23.001C24.4152 23.5533 23.9675 24.001 23.4152 24.001C22.8629 24.001 22.4152 23.5532 22.4152 23.001L22.4152 3.41519L2.12229 23.7081C1.73177 24.0986 1.09861 24.0986 0.708081 23.7081C0.317557 23.3176 0.317558 22.6844 0.708083 22.2939L21.001 2.00098L1.41406 2C0.861778 2 0.414063 1.55229 0.414063 1C0.414062 0.447717 0.861777 1.38012e-06 1.41406 1.71729e-06Z" fill="white"/>
</svg>
