<svg width="77" height="30" viewBox="0 0 77 30" fill="none" xmlns="http://www.w3.org/2000/svg">
<path d="M5.88 29V3.4L8.68 6.2H0.28V0.999998H12.36V29H5.88ZM29.2241 29.48C26.9307 29.48 24.8774 28.92 23.0641 27.8C21.2507 26.6533 19.8241 25 18.7841 22.84C17.7441 20.68 17.2241 18.0667 17.2241 15C17.2241 11.9333 17.7441 9.32 18.7841 7.16C19.8241 5 21.2507 3.36 23.0641 2.24C24.8774 1.09333 26.9307 0.52 29.2241 0.52C31.5441 0.52 33.5974 1.09333 35.3841 2.24C37.1974 3.36 38.6241 5 39.6641 7.16C40.7041 9.32 41.2241 11.9333 41.2241 15C41.2241 18.0667 40.7041 20.68 39.6641 22.84C38.6241 25 37.1974 26.6533 35.3841 27.8C33.5974 28.92 31.5441 29.48 29.2241 29.48ZM29.2241 24C30.3174 24 31.2641 23.6933 32.0641 23.08C32.8907 22.4667 33.5307 21.4933 33.9841 20.16C34.4641 18.8267 34.7041 17.1067 34.7041 15C34.7041 12.8933 34.4641 11.1733 33.9841 9.84C33.5307 8.50667 32.8907 7.53333 32.0641 6.92C31.2641 6.30666 30.3174 6 29.2241 6C28.1574 6 27.2107 6.30666 26.3841 6.92C25.5841 7.53333 24.9441 8.50667 24.4641 9.84C24.0107 11.1733 23.7841 12.8933 23.7841 15C23.7841 17.1067 24.0107 18.8267 24.4641 20.16C24.9441 21.4933 25.5841 22.4667 26.3841 23.08C27.2107 23.6933 28.1574 24 29.2241 24ZM48.4125 29L67.5325 0.999998H72.2925L53.1725 29H48.4125ZM50.8525 16.12C49.4925 16.12 48.2925 15.8133 47.2525 15.2C46.2125 14.56 45.3858 13.6667 44.7725 12.52C44.1858 11.3467 43.8925 9.97333 43.8925 8.4C43.8925 6.82667 44.1858 5.46667 44.7725 4.32C45.3858 3.17333 46.2125 2.28 47.2525 1.64C48.2925 1 49.4925 0.68 50.8525 0.68C52.2125 0.68 53.4125 1 54.4525 1.64C55.4925 2.28 56.3058 3.17333 56.8925 4.32C57.4792 5.46667 57.7725 6.82667 57.7725 8.4C57.7725 9.97333 57.4792 11.3467 56.8925 12.52C56.3058 13.6667 55.4925 14.56 54.4525 15.2C53.4125 15.8133 52.2125 16.12 50.8525 16.12ZM50.8525 12.84C51.7325 12.84 52.4392 12.48 52.9725 11.76C53.5058 11.0133 53.7725 9.89333 53.7725 8.4C53.7725 6.90667 53.5058 5.8 52.9725 5.08C52.4392 4.33333 51.7325 3.96 50.8525 3.96C49.9992 3.96 49.2925 4.33333 48.7325 5.08C48.1992 5.8 47.9325 6.90667 47.9325 8.4C47.9325 9.86667 48.1992 10.9733 48.7325 11.72C49.2925 12.4667 49.9992 12.84 50.8525 12.84ZM69.8525 29.32C68.5192 29.32 67.3192 29.0133 66.2525 28.4C65.2125 27.76 64.3992 26.8667 63.8125 25.72C63.2258 24.5467 62.9325 23.1733 62.9325 21.6C62.9325 20.0267 63.2258 18.6667 63.8125 17.52C64.3992 16.3733 65.2125 15.48 66.2525 14.84C67.3192 14.2 68.5192 13.88 69.8525 13.88C71.2392 13.88 72.4525 14.2 73.4925 14.84C74.5325 15.48 75.3458 16.3733 75.9325 17.52C76.5192 18.6667 76.8125 20.0267 76.8125 21.6C76.8125 23.1733 76.5192 24.5467 75.9325 25.72C75.3458 26.8667 74.5325 27.76 73.4925 28.4C72.4525 29.0133 71.2392 29.32 69.8525 29.32ZM69.8525 26.04C70.7325 26.04 71.4392 25.68 71.9725 24.96C72.5058 24.2133 72.7725 23.0933 72.7725 21.6C72.7725 20.1333 72.5058 19.0267 71.9725 18.28C71.4392 17.5333 70.7325 17.16 69.8525 17.16C68.9992 17.16 68.2925 17.5333 67.7325 18.28C67.1992 19 66.9325 20.1067 66.9325 21.6C66.9325 23.0933 67.1992 24.2133 67.7325 24.96C68.2925 25.68 68.9992 26.04 69.8525 26.04Z" fill="#FEBD6D"/>
</svg>
