<svg width="14" height="13" viewBox="0 0 14 13" fill="none" xmlns="http://www.w3.org/2000/svg">
<path d="M0.235966 6.23345L3.31424 7.51753L4.50572 11.8001C4.58195 12.0744 4.88205 12.1758 5.08124 11.9938L6.79712 10.4304C6.97698 10.2666 7.23317 10.2584 7.42114 10.4109L10.516 12.9222C10.7291 13.0953 11.0309 12.9648 11.0844 12.677L13.3515 0.488717C13.4098 0.174368 13.1335 -0.0878713 12.8657 0.0278944L0.232359 5.4748C-0.0794044 5.60918 -0.076688 6.10251 0.235966 6.23345ZM4.3137 6.83398L10.3298 2.69274C10.4379 2.61854 10.5491 2.78193 10.4563 2.87819L5.49128 8.03638C5.31677 8.21794 5.20419 8.46092 5.17231 8.72465L5.00318 10.1255C4.98078 10.3125 4.7457 10.3311 4.69952 10.1501L4.04905 7.59562C3.97455 7.30426 4.08312 6.99305 4.3137 6.83398Z" fill="#FEBD6D"/>
</svg>
