<svg width="22" height="13" viewBox="0 0 22 13" fill="none" xmlns="http://www.w3.org/2000/svg">
<path d="M21.3598 11.7404C21.3338 11.681 21.3096 11.6316 21.287 11.5921C20.9145 10.8801 20.2025 10.0062 19.1516 8.97013L19.1294 8.94641L19.1182 8.93477L19.107 8.92285H19.0957C18.6188 8.44039 18.3167 8.11599 18.1902 7.94991C17.9588 7.63354 17.907 7.3133 18.0334 6.98882C18.1228 6.74366 18.4585 6.22593 19.0397 5.43491C19.3454 5.01569 19.5875 4.67971 19.7663 4.42657C21.0559 2.60744 21.615 1.44499 21.4435 0.938763L21.3769 0.820465C21.3321 0.749245 21.2166 0.684092 21.0305 0.624673C20.8439 0.565379 20.6055 0.555573 20.3147 0.595089L17.0948 0.61869C17.0427 0.599077 16.9682 0.600905 16.8711 0.624673C16.7742 0.648441 16.7257 0.660366 16.7257 0.660366L16.6697 0.690076L16.6252 0.725768C16.5879 0.74937 16.5469 0.79088 16.5022 0.850216C16.4576 0.909344 16.4204 0.978735 16.3906 1.05781C16.0401 2.01479 15.6415 2.90453 15.1942 3.72701C14.9184 4.21744 14.6651 4.64248 14.4338 5.00236C14.2028 5.36211 14.009 5.62717 13.8526 5.79707C13.6959 5.96715 13.5546 6.10339 13.4276 6.20632C13.3009 6.30928 13.2041 6.35279 13.1371 6.33687C13.0699 6.32096 13.0067 6.30517 12.9468 6.28938C12.8425 6.21816 12.7586 6.1213 12.6954 5.99872C12.6319 5.87615 12.5891 5.72187 12.5668 5.536C12.5445 5.35002 12.5314 5.19005 12.5276 5.05554C12.5241 4.92121 12.5257 4.73119 12.5333 4.48603C12.541 4.24075 12.5445 4.0748 12.5445 3.98779C12.5445 3.6872 12.55 3.36098 12.5611 3.00904C12.5724 2.65709 12.5815 2.37824 12.5892 2.17281C12.5968 1.96717 12.6003 1.7496 12.6003 1.52024C12.6003 1.29087 12.5871 1.11099 12.5611 0.980439C12.5354 0.850049 12.496 0.723483 12.444 0.600781C12.3918 0.478203 12.3152 0.383382 12.2148 0.316068C12.1142 0.248838 11.9892 0.195485 11.8403 0.155845C11.4452 0.0609823 10.9421 0.00966592 10.3308 0.00168799C8.94451 -0.0141017 8.05374 0.0808854 7.65869 0.286525C7.50217 0.37341 7.36053 0.492123 7.23389 0.642291C7.09969 0.816351 7.08097 0.911339 7.17785 0.926962C7.62514 0.998057 7.94178 1.16813 8.12814 1.43701L8.1953 1.57949C8.24754 1.68229 8.2997 1.86429 8.3519 2.12523C8.40402 2.38618 8.43766 2.67484 8.45247 2.99104C8.48967 3.56849 8.48967 4.06279 8.45247 4.47398C8.41515 4.88535 8.3799 5.20559 8.34626 5.43495C8.31263 5.66432 8.26234 5.85018 8.1953 5.99249C8.12814 6.13485 8.08346 6.22186 8.06106 6.25344C8.0387 6.28502 8.02006 6.30492 8.00526 6.31273C7.90838 6.35212 7.80762 6.37219 7.70334 6.37219C7.5989 6.37219 7.47225 6.31676 7.32321 6.20599C7.17421 6.09521 7.01957 5.94305 6.85928 5.74925C6.699 5.55541 6.51824 5.28453 6.31692 4.93658C6.11576 4.58863 5.90703 4.17739 5.69087 3.70287L5.51203 3.35874C5.40023 3.13735 5.2475 2.81499 5.0537 2.39195C4.85978 1.96875 4.68838 1.55938 4.53937 1.16393C4.47981 0.997849 4.39033 0.871408 4.27109 0.784398L4.21513 0.748705C4.17793 0.717126 4.11821 0.683593 4.03629 0.647859C3.95425 0.612166 3.86864 0.58657 3.77912 0.570822L0.715686 0.594423C0.402642 0.594423 0.190239 0.669673 0.0783981 0.819966L0.0336383 0.891061C0.0112781 0.93066 0 0.993902 0 1.08095C0 1.16796 0.0223603 1.27475 0.06712 1.40119C0.514326 2.51644 1.00065 3.59201 1.5261 4.62806C2.05155 5.66411 2.50815 6.49868 2.89564 7.13101C3.2832 7.7638 3.67825 8.36102 4.08077 8.92239C4.4833 9.48396 4.74974 9.84384 4.8801 10.0019C5.01062 10.1603 5.11315 10.2788 5.18767 10.3578L5.46723 10.6425C5.64611 10.8324 5.9088 11.0597 6.2554 11.3246C6.60208 11.5897 6.98589 11.8506 7.40701 12.1079C7.82822 12.3647 8.31823 12.5743 8.87731 12.7364C9.43632 12.8986 9.98041 12.9638 10.5097 12.9323H11.7954C12.0562 12.9084 12.2538 12.8214 12.388 12.6713L12.4325 12.6118C12.4624 12.5646 12.4904 12.4913 12.5163 12.3926C12.5424 12.2937 12.5554 12.1848 12.5554 12.0664C12.5478 11.7263 12.5722 11.4199 12.628 11.1471C12.6837 10.8743 12.7472 10.6687 12.8182 10.5302C12.8892 10.3918 12.9694 10.2751 13.0585 10.1804C13.1479 10.0855 13.2116 10.0281 13.2489 10.0083C13.286 9.9884 13.3157 9.97489 13.3381 9.96679C13.5169 9.90355 13.7275 9.9648 13.9699 10.1508C14.2122 10.3367 14.4395 10.5662 14.652 10.8389C14.8645 11.1119 15.1197 11.4182 15.4178 11.7582C15.7161 12.0984 15.9769 12.3512 16.2004 12.5175L16.4239 12.6599C16.5732 12.7549 16.767 12.8419 17.0056 12.921C17.2437 13 17.4523 13.0198 17.6315 12.9802L20.4936 12.9329C20.7767 12.9329 20.9969 12.8831 21.1532 12.7845C21.3098 12.6856 21.4028 12.5767 21.4328 12.4582C21.4627 12.3396 21.4643 12.2051 21.4384 12.0547C21.4119 11.9046 21.3858 11.7997 21.3598 11.7404Z" fill="#FEBD6D"/>
</svg>
