<svg xmlns="http://www.w3.org/2000/svg" version="1.1" xmlns:xlink="http://www.w3.org/1999/xlink" xmlns:svgjs="http://svgjs.dev/svgjs" width="73" height="43"><svg width="73" height="43" viewBox="0 0 73 43" fill="none" xmlns="http://www.w3.org/2000/svg">
<path fill-rule="evenodd" clip-rule="evenodd" d="M58.4351 31.6592C58.4351 31.6592 0.303734 29.3287 1.61657 13.2214C2.91626 -2.72457 53.9103 8.83313 53.9103 8.83313C53.9103 8.83313 9.95655 2.51634 8.9209 14.132C8.02709 24.1568 58.4351 31.6592 58.4351 31.6592ZM10.7506 16.3676C10.7506 16.3676 72.0239 10.2605 72.8942 29.8081C73.77 49.477 0.600494 40.3936 0.600494 40.3936C0.600494 40.3936 61.5412 41.5534 61.0002 29.0631C60.4593 16.5728 10.7506 16.3676 10.7506 16.3676ZM59.8252 10.191C57.5009 3.51544 23.6077 0.495158 23.6077 0.495158C23.6077 0.495158 61.3302 -1.04053 70.168 12.3679C72.0899 15.2837 47.9074 12.0794 47.9074 12.0794C47.9074 12.0794 60.4005 11.8434 59.8252 10.191Z" fill="#FEBD6D"></path>
</svg><style>@media (prefers-color-scheme: light) { :root { filter: none; } }
@media (prefers-color-scheme: dark) { :root { filter: none; } }
</style></svg>