<svg width="73" height="21" viewBox="0 0 73 21" fill="none" xmlns="http://www.w3.org/2000/svg">
<path d="M7.65335 20.27C6.17735 20.27 4.76435 20.063 3.41435 19.649C2.06435 19.217 0.993348 18.668 0.201348 18.002L1.41635 15.275C2.17235 15.869 3.10835 16.364 4.22435 16.76C5.34035 17.156 6.48335 17.354 7.65335 17.354C8.64335 17.354 9.44435 17.246 10.0563 17.03C10.6683 16.814 11.1183 16.526 11.4063 16.166C11.6943 15.788 11.8383 15.365 11.8383 14.897C11.8383 14.321 11.6313 13.862 11.2173 13.52C10.8033 13.16 10.2633 12.881 9.59735 12.683C8.94935 12.467 8.22035 12.269 7.41035 12.089C6.61835 11.909 5.81735 11.702 5.00735 11.468C4.21535 11.216 3.48635 10.901 2.82035 10.523C2.17235 10.127 1.64135 9.605 1.22735 8.957C0.813348 8.309 0.606348 7.481 0.606348 6.473C0.606348 5.447 0.876348 4.511 1.41635 3.665C1.97435 2.801 2.81135 2.117 3.92735 1.613C5.06135 1.091 6.49235 0.829999 8.22035 0.829999C9.35435 0.829999 10.4793 0.973999 11.5953 1.262C12.7113 1.55 13.6833 1.964 14.5113 2.504L13.4043 5.231C12.5583 4.727 11.6853 4.358 10.7853 4.124C9.88535 3.872 9.02135 3.746 8.19335 3.746C7.22135 3.746 6.42935 3.863 5.81735 4.097C5.22335 4.331 4.78235 4.637 4.49435 5.015C4.22435 5.393 4.08935 5.825 4.08935 6.311C4.08935 6.887 4.28735 7.355 4.68335 7.715C5.09735 8.057 5.62835 8.327 6.27635 8.525C6.94235 8.723 7.68035 8.921 8.49035 9.119C9.30035 9.299 10.1013 9.506 10.8933 9.74C11.7033 9.974 12.4323 10.28 13.0803 10.658C13.7463 11.036 14.2773 11.549 14.6733 12.197C15.0873 12.845 15.2943 13.664 15.2943 14.654C15.2943 15.662 15.0153 16.598 14.4573 17.462C13.9173 18.308 13.0803 18.992 11.9463 19.514C10.8123 20.018 9.38135 20.27 7.65335 20.27ZM30.0707 20V4.07H23.8067V1.1H39.8447V4.07H33.5807V20H30.0707ZM49.9408 20V1.1H57.7168C59.3908 1.1 60.8218 1.37 62.0098 1.91C63.2158 2.45 64.1428 3.224 64.7908 4.232C65.4388 5.24 65.7628 6.437 65.7628 7.823C65.7628 9.209 65.4388 10.406 64.7908 11.414C64.1428 12.404 63.2158 13.169 62.0098 13.709C60.8218 14.231 59.3908 14.492 57.7168 14.492H51.8848L53.4508 12.899V20H49.9408ZM62.3068 20L57.5278 13.142H61.2808L66.0868 20H62.3068ZM53.4508 13.277L51.8848 11.603H57.5548C59.1028 11.603 60.2638 11.27 61.0378 10.604C61.8298 9.938 62.2258 9.011 62.2258 7.823C62.2258 6.617 61.8298 5.69 61.0378 5.042C60.2638 4.394 59.1028 4.07 57.5548 4.07H51.8848L53.4508 2.342V13.277ZM70.4459 20.189C69.8339 20.189 69.3119 19.982 68.8799 19.568C68.4479 19.136 68.2319 18.596 68.2319 17.948C68.2319 17.264 68.4479 16.724 68.8799 16.328C69.3119 15.914 69.8339 15.707 70.4459 15.707C71.0579 15.707 71.5799 15.914 72.0119 16.328C72.4439 16.724 72.6599 17.264 72.6599 17.948C72.6599 18.596 72.4439 19.136 72.0119 19.568C71.5799 19.982 71.0579 20.189 70.4459 20.189Z" fill="#353535"/>
</svg>
