<svg width="56" height="67" viewBox="0 0 56 67" fill="none" xmlns="http://www.w3.org/2000/svg">
<path fill-rule="evenodd" clip-rule="evenodd" d="M34.2518 10.2725C35.0921 10.2725 35.7732 9.5861 35.7732 8.73933V1.53322C35.7732 0.686445 35.0921 1.08921e-06 34.2518 1.0522e-06L10.3667 0L1.69505 9.52169e-07C0.854835 1.04443e-06 0.173706 0.686447 0.173706 1.53322V64.855C0.173706 65.7018 0.854835 66.3882 1.69505 66.3882H8.84537C9.68559 66.3882 10.3667 65.7018 10.3667 64.855V11.8058C10.3667 10.959 11.0478 10.2725 11.8881 10.2725L34.2518 10.2725Z" fill="#353535"/>
<path d="M34.2761 35.5959C35.1049 35.5959 35.7767 36.2945 35.7767 37.1562L35.7767 45.5815C35.7767 46.4432 35.1049 47.1417 34.2761 47.1417L20.9208 47.1417C20.0921 47.1417 19.4202 46.4432 19.4202 45.5815L19.4202 37.1562C19.4202 36.2945 20.0921 35.5959 20.9208 35.5959L34.2761 35.5959Z" fill="#353535"/>
<path d="M34.2761 18.2776C35.1049 18.2776 35.7767 18.9761 35.7767 19.8378L35.7767 28.2631C35.7767 29.1248 35.1049 29.8234 34.2761 29.8234L20.9208 29.8234C20.0921 29.8234 19.4202 29.1248 19.4202 28.2631L19.4202 19.8378C19.4202 18.9761 20.0921 18.2776 20.9208 18.2776L34.2761 18.2776Z" fill="#353535"/>
<path fill-rule="evenodd" clip-rule="evenodd" d="M44.6913 66.3882H53.4756C54.3267 66.3882 55.0167 65.7018 55.0167 64.855L55.0167 1.53322C55.0167 0.686445 54.3267 7.04005e-07 53.4756 6.29978e-07L46.2324 0C45.3813 -7.40271e-08 44.6913 0.686444 44.6913 1.53322L44.6913 54.5825C44.6913 55.4292 44.0013 56.1157 43.1502 56.1157L20.9583 56.1157C20.1072 56.1157 19.4172 56.8021 19.4172 57.6489L19.4172 64.855C19.4172 65.7018 20.1072 66.3882 20.9583 66.3882H44.6913Z" fill="#353535"/>
</svg>
