<svg width="95" height="26" viewBox="0 0 95 26" fill="none" xmlns="http://www.w3.org/2000/svg">
<rect width="95" height="26" rx="9" fill="#FF9545"/>
<path fill-rule="evenodd" clip-rule="evenodd" d="M19.439 6.84529C19.6717 6.84529 19.8603 6.65516 19.8603 6.42062V4.42467C19.8603 4.19013 19.6717 4 19.439 4L12.8233 4L10.4214 4C10.1887 4 10 4.19013 10 4.42467V21.9635C10 22.1981 10.1887 22.3882 10.4214 22.3882H12.4019C12.6346 22.3882 12.8233 22.1981 12.8233 21.9635V7.26996C12.8233 7.03542 13.0119 6.84529 13.2446 6.84529L19.439 6.84529Z" fill="#353535"/>
<path d="M19.4452 13.8594C19.6748 13.8594 19.8608 14.0529 19.8608 14.2915L19.8608 16.6252C19.8608 16.8638 19.6748 17.0573 19.4452 17.0573L15.746 17.0573C15.5165 17.0573 15.3304 16.8638 15.3304 16.6252L15.3304 14.2915C15.3304 14.0529 15.5165 13.8594 15.746 13.8594L19.4452 13.8594Z" fill="#353535"/>
<path d="M19.4452 9.06323C19.6748 9.06323 19.8608 9.25672 19.8608 9.49539L19.8608 11.829C19.8608 12.0677 19.6748 12.2612 19.4452 12.2612L15.746 12.2612C15.5165 12.2612 15.3304 12.0677 15.3304 11.829L15.3304 9.49539C15.3304 9.25671 15.5165 9.06323 15.746 9.06323L19.4452 9.06323Z" fill="#353535"/>
<path fill-rule="evenodd" clip-rule="evenodd" d="M22.3305 22.3882H24.7636C24.9993 22.3882 25.1904 22.1981 25.1904 21.9635L25.1904 4.42467C25.1904 4.19013 24.9993 4 24.7636 4L22.7574 4C22.5216 4 22.3305 4.19013 22.3305 4.42467L22.3305 19.1182C22.3305 19.3528 22.1394 19.5429 21.9036 19.5429L15.7569 19.5429C15.5212 19.5429 15.3301 19.733 15.3301 19.9676L15.3301 21.9635C15.3301 22.1981 15.5212 22.3882 15.7569 22.3882H22.3305Z" fill="#353535"/>
<path d="M78.4003 12.1231H82.0096V14.6965H78.4003V22.1338H75.6044V4.11963H83.0009V6.69308H78.4003V12.1231Z" fill="white"/>
<path d="M69.5722 12.1231H73.1815V14.6965H69.5722V22.1338H66.7762V4.11963H74.1728V6.69308H69.5722V12.1231Z" fill="white"/>
<path d="M58.066 4.11963H60.862V19.5604H65.4626V22.1338H58.066V4.11963Z" fill="white"/>
<path d="M49.3575 4.11963H52.1535V19.5604H56.7541V22.1338H49.3575V4.11963Z" fill="white"/>
<path d="M42.732 11.7113H46.5751V14.2848H42.732V19.5604H47.5676V22.1338H39.9325V4.11963H47.5676V6.69308H42.732V11.7113Z" fill="white"/>
<path d="M29.9885 8.48672C29.9885 7.04213 30.328 5.93745 31.0069 5.17266C31.7028 4.39089 32.7382 4 34.113 4C35.4879 4 36.5148 4.39089 37.1937 5.17266C37.8896 5.93745 38.2376 7.04213 38.2376 8.48672V9.17502H35.5897V8.30827C35.5897 7.66245 35.4624 7.21208 35.2078 6.95715C34.9702 6.68523 34.6307 6.54927 34.1894 6.54927C33.7481 6.54927 33.4002 6.68523 33.1456 6.95715C32.9079 7.21208 32.7891 7.66245 32.7891 8.30827C32.7891 8.92009 32.9249 9.46394 33.1965 9.9398C33.4681 10.3987 33.8075 10.8405 34.2149 11.2654C34.6222 11.6733 35.0551 12.0897 35.5134 12.5146C35.9886 12.9224 36.4299 13.3728 36.8373 13.8657C37.2446 14.3585 37.5841 14.9194 37.8557 15.5482C38.1273 16.177 38.2631 16.9163 38.2631 17.7661C38.2631 19.2107 37.9066 20.3238 37.1937 21.1056C36.4978 21.8704 35.4624 22.2528 34.0876 22.2528C32.7127 22.2528 31.6689 21.8704 30.956 21.1056C30.2601 20.3238 29.9121 19.2107 29.9121 17.7661V16.5424H32.56V17.9445C32.56 18.5903 32.6873 19.0407 32.9419 19.2956C33.2134 19.5506 33.5699 19.678 34.0112 19.678C34.4525 19.678 34.8005 19.5506 35.0551 19.2956C35.3266 19.0407 35.4624 18.5903 35.4624 17.9445C35.4624 17.3327 35.3266 16.7973 35.0551 16.3385C34.7835 15.8626 34.444 15.4207 34.0367 15.0129C33.6293 14.588 33.188 14.1716 32.7127 13.7637C32.2544 13.3388 31.8216 12.88 31.4143 12.3871C31.0069 11.8942 30.6674 11.3334 30.3959 10.7046C30.1243 10.0758 29.9885 9.33647 29.9885 8.48672Z" fill="white"/>
</svg>
