<svg width="95" height="26" viewBox="0 0 95 26" fill="none" xmlns="http://www.w3.org/2000/svg">
<rect width="95" height="26" rx="9" fill="url(#paint0_linear_41_164)"/>
<path d="M31.749 18.09C30.969 18.09 30.219 17.965 29.499 17.715C28.789 17.455 28.239 17.125 27.849 16.725L28.284 15.87C28.654 16.23 29.149 16.535 29.769 16.785C30.399 17.025 31.059 17.145 31.749 17.145C32.409 17.145 32.944 17.065 33.354 16.905C33.774 16.735 34.079 16.51 34.269 16.23C34.469 15.95 34.569 15.64 34.569 15.3C34.569 14.89 34.449 14.56 34.209 14.31C33.979 14.06 33.674 13.865 33.294 13.725C32.914 13.575 32.494 13.445 32.034 13.335C31.574 13.225 31.114 13.11 30.654 12.99C30.194 12.86 29.769 12.69 29.379 12.48C28.999 12.27 28.689 11.995 28.449 11.655C28.219 11.305 28.104 10.85 28.104 10.29C28.104 9.77 28.239 9.295 28.509 8.865C28.789 8.425 29.214 8.075 29.784 7.815C30.354 7.545 31.084 7.41 31.974 7.41C32.564 7.41 33.149 7.495 33.729 7.665C34.309 7.825 34.809 8.05 35.229 8.34L34.854 9.225C34.404 8.925 33.924 8.705 33.414 8.565C32.914 8.425 32.429 8.355 31.959 8.355C31.329 8.355 30.809 8.44 30.399 8.61C29.989 8.78 29.684 9.01 29.484 9.3C29.294 9.58 29.199 9.9 29.199 10.26C29.199 10.67 29.314 11 29.544 11.25C29.784 11.5 30.094 11.695 30.474 11.835C30.864 11.975 31.289 12.1 31.749 12.21C32.209 12.32 32.664 12.44 33.114 12.57C33.574 12.7 33.994 12.87 34.374 13.08C34.764 13.28 35.074 13.55 35.304 13.89C35.544 14.23 35.664 14.675 35.664 15.225C35.664 15.735 35.524 16.21 35.244 16.65C34.964 17.08 34.534 17.43 33.954 17.7C33.384 17.96 32.649 18.09 31.749 18.09ZM44.0483 18V8.46H40.3583V7.5H48.8483V8.46H45.1583V18H44.0483ZM54.5474 18V7.5H58.4774C59.3674 7.5 60.1324 7.645 60.7724 7.935C61.4124 8.215 61.9024 8.625 62.2424 9.165C62.5924 9.695 62.7674 10.34 62.7674 11.1C62.7674 11.84 62.5924 12.48 62.2424 13.02C61.9024 13.55 61.4124 13.96 60.7724 14.25C60.1324 14.53 59.3674 14.67 58.4774 14.67H55.1624L55.6574 14.16V18H54.5474ZM61.7174 18L59.0174 14.19H60.2174L62.9324 18H61.7174ZM55.6574 14.25L55.1624 13.725H58.4474C59.4974 13.725 60.2924 13.495 60.8324 13.035C61.3824 12.575 61.6574 11.93 61.6574 11.1C61.6574 10.26 61.3824 9.61 60.8324 9.15C60.2924 8.69 59.4974 8.46 58.4474 8.46H55.1624L55.6574 7.935V14.25ZM65.2672 18.075C65.0472 18.075 64.8572 17.995 64.6972 17.835C64.5472 17.675 64.4722 17.48 64.4722 17.25C64.4722 17.01 64.5472 16.815 64.6972 16.665C64.8572 16.515 65.0472 16.44 65.2672 16.44C65.4872 16.44 65.6722 16.515 65.8222 16.665C65.9822 16.815 66.0622 17.01 66.0622 17.25C66.0622 17.48 65.9822 17.675 65.8222 17.835C65.6722 17.995 65.4872 18.075 65.2672 18.075Z" fill="white"/>
<defs>
<linearGradient id="paint0_linear_41_164" x1="0" y1="13" x2="95" y2="13" gradientUnits="userSpaceOnUse">
<stop stop-color="#3A35CE"/>
<stop offset="1" stop-color="#7D2099"/>
</linearGradient>
</defs>
</svg>
